#!OML:ASF I:\Actors\actors\Patient Classification 2\Patient 1\Session 1\actor1.ASF
:FULLY-SPECIFIED
:DEGREES
330
root -0.539911 18.7348 5.4906 2.44174 -3.65433 -2.65214
lowerback 4.33332 -0.843705 -5.28648
upperback 1.6608 -1.35557 -1.60399
thorax -0.634983 -0.68883 1.37678
lowerneck -15.7764 -0.21166 3.19771
upperneck 32.815 -2.65249 3.56736
head 13.8186 -0.298188 0.427268
rclavicle 2.04748e-014 -1.59028e-015
rhumerus -13.2592 48.234 -84.6852
rradius 89.8975
rwrist 12.1347
rhand -4.30405 -61.1053
rfingers 7.12502
rthumb 21.462 -449.936
lclavicle 2.04748e-014 -1.59028e-015
lhumerus 6.13892 -39.8494 55.7811
lradius 69.2873
lwrist 12.5174
lhand -6.08421 -48.1311
lfingers 7.12502
lthumb 19.7514 -19.1146
rfemur 0 0 0
rtibia 0
rfoot 0 0
rtoes 0
lfemur -5.49089 -5.68671 -12.0658
ltibia 22.4922
lfoot -24.1715 15.8196
ltoes -53.8164
331
root -0.539403 18.7319 5.48645 2.38048 -3.65239 -2.64924
lowerback 4.46003 -0.787598 -5.50137
upperback 1.66014 -1.29795 -1.5176
thorax -0.702765 -0.65929 1.58516
lowerneck -15.8025 -0.330143 2.96165
upperneck 32.6895 -2.82709 3.79831
head 13.7781 -0.37404 0.530934
rclavicle 3.77691e-015 1.90833e-014
rhumerus -13.7942 48.3523 -84.6215
rradius 89.8916
rwrist 12.2482
rhand -3.93947 -60.9671
rfingers 7.12502
rthumb 21.8121 -449.758
lclavicle 3.77691e-015 1.90833e-014
lhumerus 6.18715 -39.7666 55.9867
lradius 69.3458
lwrist 12.5841
lhand -6.12721 -48.1354
lfingers 7.12502
lthumb 19.7101 -19.1147
rfemur 0 0 0
rtibia 0
rfoot 0 0
rtoes 0
lfemur -5.44425 -5.66954 -12.0708
ltibia 22.5239
lfoot -24.2096 15.7223
ltoes -53.6569
332
root -0.538018 18.7305 5.48131 2.34371 -3.51165 -2.70397
lowerback 4.61096 -0.778001 -5.52245
upperback 1.68679 -1.2952 -1.47234
thorax -0.758191 -0.657168 1.64585
lowerneck -15.6162 -0.421331 2.75336
upperneck 32.318 -2.93375 4.00533
head 13.5827 -0.429307 0.62829
rclavicle 5.76476e-015 -3.18055e-014
rhumerus -14.7529 47.9006 -84.9209
rradius 91.424
rwrist 12.5708
rhand -2.8488 -60.9758
rfingers 7.12502
rthumb 22.8591 -449.641
lclavicle 5.76476e-015 -3.18055e-014
lhumerus 6.20177 -39.5907 56.1833
lradius 69.5075
lwrist 12.6444
lhand -6.30557 -48.2341
lfingers 7.12502
lthumb 19.5386 -19.1959
rfemur 0 0 0
rtibia 0
rfoot 0 0
rtoes 0
lfemur -5.4745 -5.77279 -12.0044
ltibia 22.5704
lfoot -24.1845 15.6133
ltoes -53.5381
333
root -0.534687 18.7327 5.47713 2.35883 -3.29594 -2.76611
lowerback 4.75711 -0.809054 -5.38912
upperback 1.68816 -1.34106 -1.49234
thorax -0.839104 -0.677728 1.55595
lowerneck -15.3007 -0.457967 2.79568
upperneck 31.9225 -2.93185 3.92924
head 13.3403 -0.44764 0.587132
rclavicle 2.04748e-014 -6.36111e-015
rhumerus -15.7329 47.0278 -85.6133
rradius 93.4217
rwrist 12.229
rhand -2.62814 -61.0628
rfingers 7.12502
rthumb 23.0708 -449.702
lclavicle 2.04748e-014 -6.36111e-015
lhumerus 6.16214 -39.4216 56.3091
lradius 69.7208
lwrist 12.7792
lhand -6.66293 -48.3757
lfingers 7.12502
lthumb 19.195 -19.3029
rfemur 0 0 0
rtibia 0
rfoot 0 0
rtoes 0
lfemur -5.58631 -5.88564 -11.9209
ltibia 22.6188
lfoot -24.0871 15.5385
ltoes -53.5364
334
root -0.530878 18.7351 5.47275 2.41081 -3.08854 -2.80572
lowerback 4.84654 -0.880049 -5.25894
upperback 1.64922 -1.43752 -1.51076
thorax -0.926787 -0.722826 1.47159
lowerneck -15.0114 -0.411966 2.99423
upperneck 31.8135 -2.79683 3.61976
head 13.2195 -0.413001 0.451836
rclavicle -2.98177e-015 -1.43125e-014
rhumerus -16.4294 46.0416 -86.395
rradius 95.0292
rwrist 12.2078
rhand -2.76748 -60.8312
rfingers 7.12502
rthumb 22.9371 -449.487
lclavicle -2.98177e-015 -1.43125e-014
lhumerus 5.92585 -39.171 56.5532
lradius 69.9245
lwrist 13.0631
lhand -6.97282 -48.4001
lfingers 7.12502
lthumb 18.897 -19.298
rfemur 0 0 0
rtibia 0
rfoot 0 0
rtoes 0
lfemur -5.76909 -5.80609 -11.8613
ltibia 22.6711
lfoot -23.7923 15.5493
ltoes -53.8601
335
root -0.528741 18.7352 5.46922 2.43774 -2.91112 -2.8438
lowerback 4.82127 -0.974274 -5.18461
upperback 1.64323 -1.55758 -1.50026
thorax -0.913006 -0.782788 1.44666
lowerneck -14.9124 -0.33507 3.06751
upperneck 32.088 -2.65763 3.44422
head 13.3092 -0.362004 0.394633
rclavicle -2.44505e-014 -4.77083e-015
rhumerus -16.5532 45.1557 -86.8567
rradius 95.5176
rwrist 12.8877
rhand -4.4103 -59.5804
rfingers 7.12502
rthumb 21.3599 -448.423
lclavicle -2.44505e-014 -4.77083e-015
lhumerus 5.57814 -38.7854 56.9582
lradius 69.9531
lwrist 13.3043
lhand -7.03204 -48.4063
lfingers 7.12502
lthumb 18.84 -19.2987
rfemur 0 0 0
rtibia 0
rfoot 0 0
rtoes 0
lfemur -5.93061 -5.63894 -11.8146
ltibia 22.7085
lfoot -23.3674 15.6512
ltoes -54.2059
336
root -0.526996 18.7355 5.46767 2.45078 -2.79136 -2.88211
lowerback 4.69314 -1.07206 -5.07016
upperback 1.65681 -1.67352 -1.53552
thorax -0.824737 -0.842508 1.34925
lowerneck -14.9591 -0.266625 3.05152
upperneck 32.5362 -2.60631 3.51468
head 13.5146 -0.321791 0.4373
rclavicle 3.37934e-015 -4.77083e-015
rhumerus -16.1472 44.5909 -87.008
rradius 95.0991
rwrist 13.1006
rhand -3.24473 -60.1932
rfingers 7.12502
rthumb 22.4791 -448.905
lclavicle 3.37934e-015 -4.77083e-015
lhumerus 5.32098 -38.4843 57.2282
lradius 69.7651
lwrist 13.3792
lhand -6.94258 -48.3719
lfingers 7.12502
lthumb 18.926 -19.2726
rfemur 0 0 0
rtibia 0
rfoot 0 0
rtoes 0
lfemur -6.02066 -5.49993 -11.763
ltibia 22.7184
lfoot -23.0769 15.6461
ltoes -54.6421
337
root -0.524738 18.7361 5.46833 2.46413 -2.77529 -2.88381
lowerback 4.50454 -1.14371 -4.94947
upperback 1.67183 -1.75132 -1.62049
thorax -0.705799 -0.883665 1.19356
lowerneck -15.0664 -0.212152 3.10543
upperneck 32.9096 -2.60386 3.60548
head 13.7039 -0.292463 0.468005
rclavicle 2.04748e-014 -1.11319e-014
rhumerus -15.5915 44.3518 -86.9904
rradius 93.998
rwrist 13.2328
rhand -3.16031 -60.4328
rfingers 7.12502
rthumb 22.5601 -449.135
lclavicle 2.04748e-014 -1.11319e-014
lhumerus 5.24265 -38.3422 57.3111
lradius 69.4
lwrist 13.2688
lhand -6.77488 -48.2114
lfingers 7.12502
lthumb 19.0873 -19.128
rfemur 0 0 0
rtibia 0
rfoot 0 0
rtoes 0
lfemur -6.02794 -5.48376 -11.7445
ltibia 22.7178
lfoot -23.1901 15.4651
ltoes -54.3222
338
root -0.522782 18.7367 5.46983 2.46809 -2.90845 -2.86238
lowerback 4.30042 -1.15246 -4.93594
upperback 1.70853 -1.74803 -1.67968
thorax -0.556474 -0.885555 1.11941
lowerneck -15.2346 -0.191802 3.14656
upperneck 33.1128 -2.64442 3.70369
head 13.8339 -0.285038 0.495599
rclavicle -1.23246e-014 -3.81667e-014
rhumerus -15.0421 44.3413 -86.7655
rradius 92.5432
rwrist 13.2575
rhand -3.33627 -60.5482
rfingers 7.12502
rthumb 22.3912 -449.271
lclavicle -1.23246e-014 -3.81667e-014
lhumerus 5.30779 -38.2483 57.33
lradius 68.9538
lwrist 13.0156
lhand -6.58853 -48.1131
lfingers 7.12502
lthumb 19.2665 -19.0475
rfemur 0 0 0
rtibia 0
rfoot 0 0
rtoes 0
lfemur -5.94456 -5.61506 -11.771
ltibia 22.7171
lfoot -23.6747 15.3066
ltoes -54.043
339
root -0.519745 18.7367 5.46993 2.46234 -3.1254 -2.82631
lowerback 4.16097 -1.09658 -5.02626
upperback 1.74609 -1.66649 -1.68918
thorax -0.441894 -0.848214 1.15256
lowerneck -15.4028 -0.21748 3.19721
upperneck 33.0873 -2.72289 3.74802
head 13.8619 -0.30488 0.491393
rclavicle -5.36719e-015 -9.54166e-015
rhumerus -14.5702 44.4355 -86.3729
rradius 91.0233
rwrist 12.9567
rhand -3.66238 -60.8299
rfingers 7.12502
rthumb 22.0781 -449.589
lclavicle -5.36719e-015 -9.54166e-015
lhumerus 5.49483 -38.1726 57.3042
lradius 68.5683
lwrist 12.762
lhand -6.4615 -47.9564
lfingers 7.12502
lthumb 19.3887 -18.903
rfemur 0 0 0
rtibia 0
rfoot 0 0
rtoes 0
lfemur -5.83963 -5.61279 -11.8404
ltibia 22.7071
lfoot -23.964 15.3145
ltoes -53.8817
340
root -0.514449 18.7357 5.46913 2.44448 -3.27066 -2.76339
lowerback 4.13424 -1.02467 -5.17783
upperback 1.76698 -1.5734 -1.6266
thorax -0.404484 -0.803786 1.29656
lowerneck -15.5068 -0.294159 3.1469
upperneck 32.8704 -2.82486 3.78209
head 13.7911 -0.35399 0.494744
rclavicle -8.94531e-015 -3.18055e-014
rhumerus -14.4268 44.4681 -86.0355
rradius 89.8871
rwrist 12.6818
rhand -4.02489 -61.1571
rfingers 7.12502
rthumb 21.7301 -449.957
lclavicle -8.94531e-015 -3.18055e-014
lhumerus 5.72373 -38.0405 57.333
lradius 68.3428
lwrist 12.594
lhand -6.38489 -47.5412
lfingers 7.12502
lthumb 19.4623 -18.4952
rfemur 0 0 0
rtibia 0
rfoot 0 0
rtoes 0
lfemur -5.76378 -5.59738 -11.9499
ltibia 22.6903
lfoot -24.0592 15.4008
ltoes -53.8484
341
root -0.510709 18.7354 5.46784 2.45741 -3.31743 -2.72188
lowerback 4.1568 -0.967563 -5.34652
upperback 1.77091 -1.50403 -1.48248
thorax -0.408501 -0.770402 1.53628
lowerneck -15.551 -0.401853 2.86015
upperneck 32.6088 -2.94472 3.96891
head 13.6939 -0.421263 0.596844
rclavicle 1.98785e-016 -4.77083e-015
rhumerus -14.7009 44.313 -85.9387
rradius 89.3986
rwrist 12.8933
rhand -4.89928 -61.3686
rfingers 7.12502
rthumb 20.8902 -629.736
lclavicle 1.98785e-016 -4.77083e-015
lhumerus 5.88866 -37.7764 57.3864
lradius 68.3915
lwrist 12.5027
lhand -6.27436 -47.1718
lfingers 7.12502
lthumb 19.5686 -18.1366
rfemur 0 0 0
rtibia 0
rfoot 0 0
rtoes 0
lfemur -5.75527 -5.68029 -12.0162
ltibia 22.6786
lfoot -24.1894 15.4512
ltoes -53.7287
